<svg width="22" height="22" viewBox="0 0 22 22" fill="none" xmlns="http://www.w3.org/2000/svg">
<path d="M2.92233 10.9999C2.92233 10.8632 2.97665 10.732 3.07335 10.6353C3.17005 10.5386 3.3012 10.4843 3.43795 10.4843H17.3177L12.0111 5.1768C11.9604 5.12959 11.9198 5.07267 11.8916 5.00942C11.8634 4.94617 11.8483 4.87789 11.847 4.80866C11.8458 4.73942 11.8586 4.67065 11.8845 4.60645C11.9104 4.54224 11.949 4.48392 11.998 4.43496C12.047 4.38599 12.1053 4.3474 12.1695 4.32146C12.2337 4.29553 12.3025 4.28279 12.3717 4.28402C12.4409 4.28524 12.5092 4.30039 12.5724 4.32857C12.6357 4.35675 12.6926 4.39739 12.7398 4.44805L18.9273 10.6355C19.0239 10.7322 19.0781 10.8633 19.0781 10.9999C19.0781 11.1366 19.0239 11.2676 18.9273 11.3643L12.7398 17.5518C12.6421 17.6429 12.5128 17.6925 12.3792 17.6901C12.2456 17.6877 12.1182 17.6336 12.0237 17.5392C11.9292 17.4447 11.8751 17.3172 11.8728 17.1837C11.8704 17.0501 11.92 16.9208 12.0111 16.823L17.3177 11.5155H3.43795C3.3012 11.5155 3.17005 11.4612 3.07335 11.3645C2.97665 11.2678 2.92233 11.1367 2.92233 10.9999Z" fill="#1A1B1B"/>
</svg>
