<svg width="73" height="56" viewBox="0 0 73 56" fill="none" xmlns="http://www.w3.org/2000/svg">
<rect x="7.23211" y="1.46642" width="65.8902" height="43.6339" rx="1.66922" transform="rotate(8.69039 7.23211 1.46642)" fill="white"/>
<rect x="7.23211" y="1.46642" width="65.8902" height="43.6339" rx="1.66922" transform="rotate(8.69039 7.23211 1.46642)" stroke="#DFDFDF" stroke-width="0.878536"/>
<rect x="19.332" y="18.929" width="4.67062" height="22.118" transform="rotate(-81.3096 19.332 18.929)" fill="#4EA1FF"/>
<rect x="16.168" y="35.136" width="4.67062" height="22.118" transform="rotate(-81.3096 16.168 35.136)" fill="#1B1E1E"/>
<rect x="25.1553" y="28.1831" width="4.67062" height="22.118" transform="rotate(-81.3096 25.1553 28.1831)" fill="#FF5D40"/>
<rect x="43.917" y="23.1855" width="5.65835" height="5.65833" rx="2.82917" transform="rotate(-81.3096 43.917 23.1855)" fill="#FF942A"/>
<rect x="51.7959" y="24.3906" width="5.65835" height="5.65833" rx="2.82917" transform="rotate(-81.3096 51.7959 24.3906)" fill="#1B1E1E"/>
<rect x="17.7324" y="27.5466" width="5.65835" height="5.65833" rx="2.82917" transform="rotate(-81.3096 17.7324 27.5466)" fill="#1B1E1E"/>
</svg>
