<svg width="158" height="173" viewBox="0 0 158 173" fill="none" xmlns="http://www.w3.org/2000/svg">
<rect x="10.6772" y="48.4778" width="93.4824" height="78.4375" rx="2.25" transform="rotate(-7.82823 10.6772 48.4778)" fill="white"/>
<rect x="10.6772" y="48.4778" width="93.4824" height="78.4375" rx="2.25" transform="rotate(-7.82823 10.6772 48.4778)" stroke="#DFDFDF" stroke-width="1.5"/>
<rect x="34.1055" y="67.2964" width="6.64547" height="31.4701" transform="rotate(-97.8282 34.1055 67.2964)" fill="#4EA1FF"/>
<rect x="49.3389" y="82.1746" width="6.64547" height="31.4701" rx="3.32273" transform="rotate(-97.8282 49.3389 82.1746)" fill="white"/>
<rect x="69.3652" y="63.1577" width="8.05082" height="8.0508" rx="4.0254" transform="rotate(-97.8282 69.3652 63.1577)" fill="#FF942A"/>
<rect x="80.5996" y="61.6135" width="8.05082" height="8.0508" rx="4.0254" transform="rotate(-97.8282 80.5996 61.6135)" fill="#1B1E1E"/>
<rect x="83.1943" y="78.4233" width="8.05082" height="8.0508" rx="4.0254" transform="rotate(-97.8282 83.1943 78.4233)" fill="white"/>
<rect x="36.9736" y="84.7778" width="8.05082" height="8.0508" rx="4.0254" transform="rotate(-97.8282 36.9736 84.7778)" fill="white"/>
<rect y="75.6895" width="129" height="97" rx="3" fill="#FF942A"/>
<rect x="102.531" y="118.622" width="38.32" height="10.96" rx="2" fill="#1B1E1E"/>
<rect x="102.531" y="118.622" width="38.32" height="10.96" rx="2" stroke="white" stroke-width="2"/>
<path d="M153.389 25.4575C153.983 25.5782 154.443 25.8639 154.77 26.3147C155.077 26.7783 155.173 27.2911 155.059 27.8531C154.945 28.4151 154.658 28.8416 154.197 29.1326C153.718 29.4364 153.181 29.528 152.587 29.4073C151.992 29.2867 151.542 28.9945 151.235 28.5309C150.908 28.0801 150.802 27.5737 150.916 27.0117C151.031 26.4498 151.327 26.0169 151.807 25.7131C152.267 25.422 152.795 25.3368 153.389 25.4575ZM152.05 23.5304L154.345 12.1442L157.716 12.829L155.422 24.2153L152.05 23.5304Z" fill="#F84F38"/>
<path d="M141.425 27.2154C140.255 26.9671 139.24 26.5424 138.379 25.9411C137.535 25.3431 136.92 24.6097 136.535 23.7408C136.15 22.8719 136.058 21.9229 136.26 20.8938L139.866 21.6589C139.768 22.3583 139.892 22.9542 140.24 23.4467C140.604 23.9426 141.17 24.2722 141.94 24.4354C142.725 24.602 143.381 24.5486 143.908 24.2752C144.438 23.9858 144.768 23.5365 144.897 22.9275C145.003 22.4307 144.937 21.9897 144.701 21.6045C144.464 21.2194 144.132 20.8893 143.705 20.6144C143.297 20.3269 142.716 19.9859 141.962 19.5915C140.941 19.0397 140.117 18.5384 139.493 18.0877C138.888 17.6243 138.403 17.0274 138.039 16.2969C137.694 15.5538 137.634 14.6534 137.858 13.5956C138.069 12.6019 138.501 11.7891 139.154 11.1573C139.808 10.5254 140.624 10.1124 141.603 9.9182C142.586 9.70795 143.654 9.72525 144.808 9.97009C146.539 10.3374 147.851 11.0596 148.745 12.1369C149.658 13.2016 150.01 14.4991 149.803 16.0294L146.101 15.2439C146.191 14.6601 146.043 14.1346 145.656 13.6674C145.289 13.1875 144.729 12.8676 143.976 12.7078C143.319 12.5684 142.754 12.6245 142.282 12.876C141.826 13.131 141.53 13.579 141.394 14.2201C141.299 14.6689 141.363 15.0761 141.587 15.4418C141.83 15.7949 142.148 16.1135 142.54 16.3977C142.951 16.6692 143.532 17.0102 144.282 17.4206C145.304 17.9724 146.126 18.4817 146.747 18.9484C147.368 19.4152 147.859 20.0219 148.22 20.7684C148.58 21.5149 148.65 22.409 148.429 23.4508C148.239 24.3483 147.83 25.1324 147.202 25.8031C146.574 26.4738 145.762 26.9463 144.765 27.2207C143.773 27.479 142.659 27.4772 141.425 27.2154Z" fill="#F84F38"/>
<path d="M124.064 23.5317C122.493 23.1984 121.129 22.5237 119.971 21.5076C118.813 20.4915 117.988 19.2528 117.494 17.7913C117.003 16.3139 116.933 14.7497 117.283 13.0989C117.63 11.4642 118.326 10.0793 119.371 8.9443C120.419 7.7933 121.678 6.98859 123.149 6.53019C124.62 6.07179 126.14 6.00921 127.711 6.34247C129.298 6.67913 130.662 7.3538 131.804 8.3665C132.962 9.3826 133.778 10.6277 134.252 12.1017C134.746 13.5632 134.82 15.1113 134.473 16.7461C134.122 18.3969 133.423 19.7978 132.375 20.9488C131.346 22.0871 130.097 22.8855 128.626 23.3439C127.155 23.8023 125.635 23.8649 124.064 23.5317ZM124.702 20.5266C125.711 20.7408 126.648 20.7051 127.513 20.4196C128.381 20.118 129.121 19.5884 129.734 18.8308C130.347 18.0732 130.773 17.1334 131.011 16.0115C131.249 14.8896 131.24 13.8661 130.984 12.9408C130.731 11.9996 130.268 11.2229 129.594 10.611C128.92 9.99896 128.078 9.58585 127.068 9.37161C126.059 9.15738 125.114 9.19132 124.233 9.47346C123.368 9.75899 122.63 10.2806 122.017 11.0382C121.407 11.7798 120.983 12.7115 120.745 13.8335C120.507 14.9554 120.515 15.9869 120.767 16.9282C121.02 17.8695 121.481 18.6541 122.152 19.2821C122.842 19.8975 123.692 20.3123 124.702 20.5266Z" fill="#F84F38"/>
<path d="M116.063 4.12224L112.502 20.9027L109.137 20.1886L111.452 9.27408L104.641 19.2347L102.093 18.6941L99.8887 6.82056L97.5729 17.7351L94.2072 17.021L97.7676 0.240479L101.59 1.05152L104.28 14.6611L112.264 3.3163L116.063 4.12224Z" fill="#F84F38"/>
</svg>
