<svg width="40" height="40" viewBox="0 0 40 40" fill="none" xmlns="http://www.w3.org/2000/svg">
<rect x="0.5" y="0.5" width="39" height="39" rx="19.5" fill="white"/>
<rect x="0.5" y="0.5" width="39" height="39" rx="19.5" stroke="#EDEDED"/>
<path d="M16.75 18.0625H12.25C12.1008 18.0625 11.9577 18.0032 11.8523 17.8977C11.7468 17.7923 11.6875 17.6492 11.6875 17.5V13C11.6875 12.8508 11.7468 12.7077 11.8523 12.6023C11.9577 12.4968 12.1008 12.4375 12.25 12.4375C12.3992 12.4375 12.5423 12.4968 12.6477 12.6023C12.7532 12.7077 12.8125 12.8508 12.8125 13V16.1425L14.5 14.455C16.1387 12.8084 18.3644 11.88 20.6875 11.8741H20.7362C23.0378 11.8671 25.2495 12.7667 26.8928 14.3781C26.9938 14.4835 27.0498 14.624 27.0491 14.77C27.0484 14.9159 26.991 15.0559 26.889 15.1603C26.7871 15.2647 26.6485 15.3254 26.5026 15.3295C26.3567 15.3337 26.2149 15.2809 26.1072 15.1825C24.6593 13.7693 22.7127 12.9839 20.6896 12.9965C18.6664 13.0092 16.7298 13.8188 15.2997 15.25L13.6075 16.9375H16.75C16.8992 16.9375 17.0423 16.9968 17.1477 17.1023C17.2532 17.2077 17.3125 17.3508 17.3125 17.5C17.3125 17.6492 17.2532 17.7923 17.1477 17.8977C17.0423 18.0032 16.8992 18.0625 16.75 18.0625ZM28.75 22.9375H24.25C24.1008 22.9375 23.9577 22.9968 23.8523 23.1023C23.7468 23.2077 23.6875 23.3508 23.6875 23.5C23.6875 23.6492 23.7468 23.7923 23.8523 23.8977C23.9577 24.0032 24.1008 24.0625 24.25 24.0625H27.3925L25.7003 25.75C24.2716 27.185 22.3318 27.9942 20.3069 28H20.2638C18.2554 28.0048 16.326 27.2188 14.8928 25.8119C14.7851 25.7134 14.6433 25.6607 14.4974 25.6649C14.3515 25.669 14.2129 25.7297 14.111 25.8341C14.009 25.9385 13.9516 26.0785 13.9509 26.2244C13.9502 26.3704 14.0062 26.5109 14.1072 26.6163C15.7497 28.2294 17.9615 29.1307 20.2638 29.125H20.3125C22.6356 29.1191 24.8613 28.1907 26.5 26.5441L28.1875 24.8519V28C28.1875 28.1492 28.2468 28.2923 28.3523 28.3977C28.4577 28.5032 28.6008 28.5625 28.75 28.5625C28.8992 28.5625 29.0423 28.5032 29.1477 28.3977C29.2532 28.2923 29.3125 28.1492 29.3125 28V23.5C29.3125 23.3508 29.2532 23.2077 29.1477 23.1023C29.0423 22.9968 28.8992 22.9375 28.75 22.9375Z" fill="#515151"/>
</svg>
