<svg width="98" height="79" viewBox="47 73 98 79" fill="none" xmlns="http://www.w3.org/2000/svg">
  <rect x="47.2283" y="73.4464" width="81.1161" height="53.5316" rx="2.04015" fill="white"/>
  <rect x="47.2283" y="73.4464" width="81.1161" height="53.5316" rx="2.04015" stroke="#EBEBEB" stroke-width="1.07377"/>
  <rect x="65.0713" y="92.3097" width="5.70854" height="27.0332" transform="rotate(-90 65.0713 92.3097)" fill="#4EA1FF"/>
  <rect x="64.2422" y="112.477" width="5.70854" height="27.0332" transform="rotate(-90 64.2422 112.477)" fill="#1B1E1E"/>
  <rect x="73.8164" y="102.416" width="5.70854" height="27.0332" transform="rotate(-90 73.8164 102.416)" fill="#FF5D40"/>
  <rect x="95.5618" y="92.9128" width="6.91576" height="6.91574" rx="3.45787" transform="rotate(-90 95.5618 92.9128)" fill="#FF942A"/>
  <rect x="105.302" y="92.9143" width="6.91576" height="6.91574" rx="3.45787" transform="rotate(-90 105.302 92.9143)" fill="#1B1E1E"/>
  <rect x="64.7305" y="103.018" width="6.91576" height="6.91574" rx="3.45787" transform="rotate(-90 64.7305 103.018)" fill="#1B1E1E"/>
  <rect width="7.26129" height="34.3313" transform="matrix(0.857013 -0.515295 0.517897 0.855443 114.408 112.281)" fill="#1B1E1E"/>
  <rect width="7.26129" height="3.50468" transform="matrix(0.857013 -0.515295 0.517897 0.855443 132.179 141.623)" fill="#FF942A"/>
  <path d="M114.279 105.051L120.633 108.546L114.419 112.282L114.279 105.051Z" fill="#D9D9D9"/>
  <path d="M114.288 105.065L116.116 106.071L114.328 107.145L114.288 105.065Z" fill="#1B1E1E"/>
</svg>
