<svg width="157" height="153" viewBox="0 0 157 153" fill="none" xmlns="http://www.w3.org/2000/svg">
<rect x="0.5" y="0.5" width="156" height="152" rx="4.5" fill="white"/>
<rect x="0.5" y="0.5" width="156" height="152" rx="4.5" stroke="#EDEDED"/>
<path d="M25.4326 29.585L25.4326 31.0068L12.5264 31.0068L12.5264 29.585L18.0889 29.585L18.0889 26.5068L13.9482 26.5068L13.9482 19.6943L23.9482 19.6943L23.9482 26.5068L19.8076 26.5068L19.8076 29.585L25.4326 29.585ZM15.6514 21.085L15.6514 25.1475L22.2295 25.1475L22.2295 21.085L15.6514 21.085ZM32.6514 20.5381C32.6514 22.7256 34.792 24.9131 37.7451 25.4287L36.9639 26.8818C34.5967 26.3818 32.6592 24.9521 31.7451 23.0537C30.8076 24.9365 28.8701 26.374 26.5107 26.8818L25.7451 25.4287C28.667 24.8975 30.792 22.71 30.8076 20.5381L30.8076 19.4912L32.6514 19.4912L32.6514 20.5381ZM38.2607 29.4912L38.2607 30.9287L25.3545 30.9287L25.3545 29.4912L38.2607 29.4912ZM51.0732 26.8193L51.0732 28.1943L45.4482 28.1943L45.4482 32.7256L43.7295 32.7256L43.7295 28.1943L38.167 28.1943L38.167 26.8193L51.0732 26.8193ZM41.4482 19.1631L41.4482 20.8975L47.7607 20.8975L47.7607 19.1631L49.5107 19.1631L49.5107 25.3506L39.7295 25.3506L39.7295 19.1631L41.4482 19.1631ZM41.4482 23.9443L47.7607 23.9443L47.7607 22.2725L41.4482 22.2725L41.4482 23.9443ZM63.2607 20.4912L63.2607 21.8975L51.5889 21.8975L51.5889 20.4912L56.5732 20.4912L56.5732 18.7881L58.292 18.7881L58.292 20.4912L63.2607 20.4912ZM63.917 29.8037L63.917 31.21L51.0107 31.21L51.0107 29.8037L56.5732 29.8037L56.5732 28.0693C54.1279 27.874 52.6514 26.8975 52.667 25.335C52.6514 23.6318 54.4795 22.6162 57.4326 22.6162C60.3389 22.6162 62.1826 23.6318 62.1826 25.335C62.1826 26.8896 60.6982 27.8662 58.292 28.0537L58.292 29.8037L63.917 29.8037ZM57.4326 23.9756C55.5107 23.9912 54.4326 24.4443 54.4482 25.335C54.4326 26.2412 55.5107 26.6943 57.4326 26.71C59.3232 26.6943 60.4014 26.2412 60.4014 25.335C60.4014 24.4443 59.3232 23.9912 57.4326 23.9756ZM71.6982 21.0537C71.6982 22.7881 72.8232 24.5068 75.042 25.2412L74.167 26.585C72.5889 26.0615 71.4639 24.999 70.8545 23.6787C70.2217 25.124 69.0498 26.2725 67.4014 26.835L66.4795 25.4912C68.7607 24.7412 69.9482 22.9131 69.9482 21.0537L69.9482 20.8818L66.9639 20.8818L66.9639 19.4912L74.6357 19.4912L74.6357 20.8818L71.6982 20.8818L71.6982 21.0537ZM77.7764 18.6006L77.7764 22.1318L79.7451 22.1318L79.7451 23.585L77.7764 23.585L77.7764 27.1162L76.042 27.1162L76.042 18.6006L77.7764 18.6006ZM77.7764 27.7725L77.7764 32.7256L76.042 32.7256L76.042 29.1631L68.3701 29.1631L68.3701 27.7725L77.7764 27.7725ZM84.6357 20.6318C84.6201 22.5537 85.7451 24.3037 87.9639 25.0068L87.0264 26.3662C85.4873 25.8271 84.4092 24.8037 83.8076 23.46C83.1826 24.999 82.0029 26.21 80.292 26.8037L79.3701 25.3975C81.7139 24.6318 82.8857 22.7412 82.8857 20.71L82.8857 19.3662L84.6357 19.3662L84.6357 20.6318ZM91.292 18.6006L91.292 26.9131L89.5576 26.9131L89.5576 22.7568L86.7451 22.7568L86.7451 21.335L89.5576 21.335L89.5576 18.6006L91.292 18.6006ZM86.5107 27.2881C89.5107 27.2881 91.3389 28.2881 91.3389 30.0068C91.3389 31.7256 89.5107 32.71 86.5107 32.71C83.5264 32.71 81.6982 31.7256 81.7139 30.0068C81.6982 28.2881 83.5264 27.2881 86.5107 27.2881ZM86.5107 28.6318C84.542 28.6318 83.4326 29.1162 83.4326 30.0068C83.4326 30.8662 84.542 31.3506 86.5107 31.3506C88.4795 31.3506 89.6045 30.8662 89.6045 30.0068C89.6045 29.1162 88.4795 28.6318 86.5107 28.6318ZM103.354 18.6006L103.354 24.2256L105.526 24.2256L105.526 25.6631L103.354 25.6631L103.354 32.7256L101.636 32.7256L101.636 18.6006L103.354 18.6006ZM100.542 20.7725L100.542 22.1631L92.2139 22.1631L92.2139 20.7725L95.5576 20.7725L95.5576 18.8037L97.292 18.8037L97.292 20.7725L100.542 20.7725ZM96.4326 23.085C98.4639 23.085 99.9795 24.46 99.9795 26.4131C99.9795 28.3662 98.4639 29.7256 96.4326 29.7256C94.3701 29.7256 92.8545 28.3662 92.8701 26.4131C92.8545 24.46 94.3701 23.085 96.4326 23.085ZM96.4326 24.5068C95.3232 24.5068 94.5264 25.2568 94.5264 26.4131C94.5264 27.5693 95.3232 28.3037 96.4326 28.2881C97.5107 28.3037 98.3076 27.5693 98.3232 26.4131C98.3076 25.2568 97.5107 24.5068 96.4326 24.5068ZM116.917 18.6006L116.917 32.7256L115.167 32.7256L115.167 18.6006L116.917 18.6006ZM112.698 20.1006C112.698 24.3037 111.073 27.8818 106.12 30.2256L105.214 28.835C108.909 27.0771 110.628 24.6865 110.933 21.4756L105.933 21.4756L105.933 20.1006L112.698 20.1006Z" fill="#2B343B"/>
<rect x="47.2283" y="73.4464" width="81.1161" height="53.5316" rx="2.04015" fill="white"/>
<rect x="47.2283" y="73.4464" width="81.1161" height="53.5316" rx="2.04015" stroke="#EBEBEB" stroke-width="1.07377"/>
<rect x="65.0713" y="92.3097" width="5.70854" height="27.0332" transform="rotate(-90 65.0713 92.3097)" fill="#4EA1FF"/>
<rect x="64.2422" y="112.477" width="5.70854" height="27.0332" transform="rotate(-90 64.2422 112.477)" fill="#1B1E1E"/>
<rect x="73.8164" y="102.416" width="5.70854" height="27.0332" transform="rotate(-90 73.8164 102.416)" fill="#FF5D40"/>
<rect x="95.5618" y="92.9128" width="6.91576" height="6.91574" rx="3.45787" transform="rotate(-90 95.5618 92.9128)" fill="#FF942A"/>
<rect x="105.302" y="92.9143" width="6.91576" height="6.91574" rx="3.45787" transform="rotate(-90 105.302 92.9143)" fill="#1B1E1E"/>
<rect x="64.7305" y="103.018" width="6.91576" height="6.91574" rx="3.45787" transform="rotate(-90 64.7305 103.018)" fill="#1B1E1E"/>
<rect width="7.26129" height="34.3313" transform="matrix(0.857013 -0.515295 0.517897 0.855443 114.408 112.281)" fill="#1B1E1E"/>
<rect width="7.26129" height="3.50468" transform="matrix(0.857013 -0.515295 0.517897 0.855443 132.179 141.623)" fill="#FF942A"/>
<path d="M114.279 105.051L120.633 108.546L114.419 112.282L114.279 105.051Z" fill="#D9D9D9"/>
<path d="M114.288 105.065L116.116 106.071L114.328 107.145L114.288 105.065Z" fill="#1B1E1E"/>
</svg>
