<svg width="30" height="30" viewBox="0 0 30 30" fill="none" xmlns="http://www.w3.org/2000/svg">
<path d="M27 15.0191C27 14.816 26.9193 14.6212 26.7757 14.4775C26.632 14.3339 26.4372 14.2532 26.234 14.2532H5.61514L13.4983 6.36869C13.5736 6.29856 13.634 6.214 13.6758 6.12004C13.7177 6.02608 13.7402 5.92465 13.742 5.8218C13.7438 5.71895 13.7249 5.61679 13.6864 5.52141C13.6479 5.42604 13.5905 5.33939 13.5178 5.26666C13.4451 5.19392 13.3584 5.13658 13.263 5.09806C13.1677 5.05953 13.0655 5.04061 12.9626 5.04243C12.8598 5.04424 12.7584 5.06675 12.6644 5.10862C12.5705 5.15048 12.4859 5.21084 12.4158 5.2861L3.22401 14.4779C3.08057 14.6215 3 14.8162 3 15.0191C3 15.2221 3.08057 15.4168 3.22401 15.5604L12.4158 24.7522C12.561 24.8875 12.753 24.9611 12.9515 24.9576C13.1499 24.9541 13.3392 24.8738 13.4796 24.7334C13.6199 24.5931 13.7003 24.4037 13.7038 24.2053C13.7073 24.0069 13.6336 23.8148 13.4983 23.6696L5.61514 15.7851H26.234C26.4372 15.7851 26.632 15.7044 26.7757 15.5608C26.9193 15.4171 27 15.2223 27 15.0191Z" fill="#1A1B1B"/>
</svg>
